<?xml version="1.0" standalone="no"?><!DOCTYPE svg PUBLIC "-//W3C//DTD SVG 1.1//EN" "http://www.w3.org/Graphics/SVG/1.1/DTD/svg11.dtd"><svg t="1529565536403" class="icon" style="" viewBox="0 0 1024 1024" version="1.1" xmlns="http://www.w3.org/2000/svg" p-id="1242" xmlns:xlink="http://www.w3.org/1999/xlink" width="64" height="64"><defs><style type="text/css"></style></defs><path d="M874.057143 149.942857a512 512 0 1 0 0 724.114286 510.374603 510.374603 0 0 0 0-724.114286z m-34.458413 689.574603A463.238095 463.238095 0 1 1 184.48254 184.40127a463.238095 463.238095 0 0 1 655.11619 655.11619z" p-id="1243"></path><path d="M746.138413 493.145397H533.699048V280.624762a24.380952 24.380952 0 0 0-16.253969-23.893333 24.380952 24.380952 0 0 0-32.507936 23.161904v213.252064H272.497778a24.380952 24.380952 0 0 0-23.893334 16.253968 24.380952 24.380952 0 0 0 23.161905 32.507937h213.170794v211.951746a25.193651 25.193651 0 0 0 19.829841 25.19365 24.380952 24.380952 0 0 0 28.932064-23.974603V541.907302H746.869841a24.380952 24.380952 0 0 0 23.161905-32.507937 24.380952 24.380952 0 0 0-23.893333-16.253968z" p-id="1244"></path></svg>