<?xml version="1.0" standalone="no"?><!DOCTYPE svg PUBLIC "-//W3C//DTD SVG 1.1//EN" "http://www.w3.org/Graphics/SVG/1.1/DTD/svg11.dtd"><svg t="1529564924467" class="icon" style="" viewBox="0 0 1024 1024" version="1.1" xmlns="http://www.w3.org/2000/svg" p-id="1127" xmlns:xlink="http://www.w3.org/1999/xlink" width="64" height="64"><defs><style type="text/css"></style></defs><path d="M0 0v903.994386A120.275088 120.275088 0 0 0 120.005614 1024h784.078597A120.275088 120.275088 0 0 0 1024 903.994386V0z m902.197895 970.105263H130.784561A77.159298 77.159298 0 0 1 53.894737 893.215439V206.596491h925.192982v686.618948a77.159298 77.159298 0 0 1-76.889824 76.889824zM979.087719 161.684211H53.894737V53.894737h925.192982z" p-id="1128"></path><path d="M510.562807 785.425965h2.874386A250.790175 250.790175 0 0 0 763.508772 535.354386V434.750877a26.049123 26.049123 0 0 0-14.551579-23.983158A26.947368 26.947368 0 0 0 709.614035 434.930526v101.861053a198.152982 198.152982 0 0 1-197.614035 197.614035 198.152982 198.152982 0 0 1-197.614035-197.614035V434.750877a26.049123 26.049123 0 0 0-14.551579-23.983158A26.947368 26.947368 0 0 0 260.491228 434.930526V535.354386a250.790175 250.790175 0 0 0 250.071579 250.071579z" p-id="1129"></path></svg>